<svg xmlns="http://www.w3.org/2000/svg" xmlns:xlink="http://www.w3.org/1999/xlink" width="0" height="0" style="display:none;"><symbol viewBox="0 0 24 24" id="arrow-left-s-line"><path d="M10.8284 12.0007L15.7782 16.9504L14.364 18.3646L8 12.0007L14.364 5.63672L15.7782 7.05093L10.8284 12.0007Z"></path></symbol><symbol viewBox="0 0 24 24" id="arrow-right-s-line"><path d="M13.1717 12.0007L8.22192 7.05093L9.63614 5.63672L16.0001 12.0007L9.63614 18.3646L8.22192 16.9504L13.1717 12.0007Z"></path></symbol><symbol viewBox="0 0 24 24" id="star-line"><path d="M12.0006 18.26L4.94715 22.2082L6.52248 14.2799L0.587891 8.7918L8.61493 7.84006L12.0006 0.5L15.3862 7.84006L23.4132 8.7918L17.4787 14.2799L19.054 22.2082L12.0006 18.26ZM12.0006 15.968L16.2473 18.3451L15.2988 13.5717L18.8719 10.2674L14.039 9.69434L12.0006 5.27502L9.96214 9.69434L5.12921 10.2674L8.70231 13.5717L7.75383 18.3451L12.0006 15.968Z"></path></symbol><symbol viewBox="0 0 24 24" id="time-line"><path d="M12 22C6.47715 22 2 17.5228 2 12C2 6.47715 6.47715 2 12 2C17.5228 2 22 6.47715 22 12C22 17.5228 17.5228 22 12 22ZM12 20C16.4183 20 20 16.4183 20 12C20 7.58172 16.4183 4 12 4C7.58172 4 4 7.58172 4 12C4 16.4183 7.58172 20 12 20ZM13 12H17V14H11V7H13V12Z"></path></symbol><symbol viewBox="0 0 24 24" id="auction-line"><path d="M14.0049 20.0028V22.0028H2.00488V20.0028H14.0049ZM14.5907 0.689087L22.3688 8.46726L20.9546 9.88147L19.894 9.52792L17.4191 12.0028L23.076 17.6597L21.6617 19.0739L16.0049 13.417L13.6007 15.8212L13.8836 16.9525L12.4693 18.3668L4.69117 10.5886L6.10539 9.17437L7.23676 9.45721L13.53 3.16396L13.1765 2.1033L14.5907 0.689087ZM15.2978 4.22462L8.22671 11.2957L11.7622 14.8312L18.8333 7.76015L15.2978 4.22462Z"></path></symbol><symbol viewBox="0 0 24 24" id="arrow-down-s-line"><path d="M11.9999 13.1714L16.9497 8.22168L18.3639 9.63589L11.9999 15.9999L5.63599 9.63589L7.0502 8.22168L11.9999 13.1714Z"></path></symbol><symbol viewBox="0 0 24 24" id="archive-2-line"><path d="M22 20V7L20 3H4L2 7.00353V20C2 20.5523 2.44772 21 3 21H21C21.5523 21 22 20.5523 22 20ZM4 9H20V19H4V9ZM5.236 5H18.764L19.764 7H4.237L5.236 5ZM15 11H9V13H15V11Z"></path></symbol><symbol viewBox="0 0 24 24" id="price-tag-3-line"><path d="M10.9042 2.10025L20.8037 3.51446L22.2179 13.414L13.0255 22.6063C12.635 22.9969 12.0019 22.9969 11.6113 22.6063L1.71184 12.7069C1.32131 12.3163 1.32131 11.6832 1.71184 11.2926L10.9042 2.10025ZM11.6113 4.22157L3.83316 11.9997L12.3184 20.485L20.0966 12.7069L19.036 5.28223L11.6113 4.22157ZM13.7327 10.5855C12.9516 9.80448 12.9516 8.53815 13.7327 7.7571C14.5137 6.97606 15.78 6.97606 16.5611 7.7571C17.3421 8.53815 17.3421 9.80448 16.5611 10.5855C15.78 11.3666 14.5137 11.3666 13.7327 10.5855Z"></path></symbol><symbol viewBox="0 0 24 24" id="edit-2-line"><path d="M5 18.89H6.41421L15.7279 9.57627L14.3137 8.16206L5 17.4758V18.89ZM21 20.89H3V16.6473L16.435 3.21231C16.8256 2.82179 17.4587 2.82179 17.8492 3.21231L20.6777 6.04074C21.0682 6.43126 21.0682 7.06443 20.6777 7.45495L9.24264 18.89H21V20.89ZM15.7279 6.74785L17.1421 8.16206L18.5563 6.74785L17.1421 5.33363L15.7279 6.74785Z"></path></symbol><symbol viewBox="0 0 24 24" id="reply-line"><path d="M11 20L1 12L11 4V9C16.5228 9 21 13.4772 21 19C21 19.2727 20.9891 19.5428 20.9677 19.81C19.5055 17.0364 16.6381 15.119 13.313 15.0053L13 15H10.9999L11 20ZM8.99986 13H10.9999L13.0341 13.0003L13.3814 13.0065C14.6657 13.0504 15.9053 13.3165 17.0568 13.7734C15.5898 12.0749 13.4204 11 11 11H9V8.16125L4.20156 12L8.99992 15.8387L8.99986 13Z"></path></symbol><symbol viewBox="0 0 24 24" id="search-2-line"><path d="M11 2C15.968 2 20 6.032 20 11C20 15.968 15.968 20 11 20C6.032 20 2 15.968 2 11C2 6.032 6.032 2 11 2ZM11 18C14.8675 18 18 14.8675 18 11C18 7.1325 14.8675 4 11 4C7.1325 4 4 7.1325 4 11C4 14.8675 7.1325 18 11 18ZM19.4853 18.0711L22.3137 20.8995L20.8995 22.3137L18.0711 19.4853L19.4853 18.0711Z"></path></symbol><symbol viewBox="0 0 24 24" id="menu-line"><path d="M3 4H21V6H3V4ZM3 11H21V13H3V11ZM3 18H21V20H3V18Z"></path></symbol><symbol viewBox="0 0 24 24" id="arrow-up-s-line"><path d="M11.9999 10.8284L7.0502 15.7782L5.63599 14.364L11.9999 8L18.3639 14.364L16.9497 15.7782L11.9999 10.8284Z"></path></symbol><symbol viewBox="0 0 24 24" id="stack-line"><path d="M20.0834 15.1999L21.2855 15.9212C21.5223 16.0633 21.599 16.3704 21.457 16.6072C21.4147 16.6776 21.3559 16.7365 21.2855 16.7787L12.5145 22.0412C12.1979 22.2313 11.8022 22.2313 11.4856 22.0412L2.71463 16.7787C2.47784 16.6366 2.40106 16.3295 2.54313 16.0927C2.58536 16.0223 2.64425 15.9634 2.71463 15.9212L3.91672 15.1999L12.0001 20.0499L20.0834 15.1999ZM20.0834 10.4999L21.2855 11.2212C21.5223 11.3633 21.599 11.6704 21.457 11.9072C21.4147 11.9776 21.3559 12.0365 21.2855 12.0787L12.0001 17.6499L2.71463 12.0787C2.47784 11.9366 2.40106 11.6295 2.54313 11.3927C2.58536 11.3223 2.64425 11.2634 2.71463 11.2212L3.91672 10.4999L12.0001 15.3499L20.0834 10.4999ZM12.5145 1.30864L21.2855 6.5712C21.5223 6.71327 21.599 7.0204 21.457 7.25719C21.4147 7.32757 21.3559 7.38647 21.2855 7.42869L12.0001 12.9999L2.71463 7.42869C2.47784 7.28662 2.40106 6.97949 2.54313 6.7427C2.58536 6.67232 2.64425 6.61343 2.71463 6.5712L11.4856 1.30864C11.8022 1.11864 12.1979 1.11864 12.5145 1.30864ZM12.0001 3.33233L5.88735 6.99995L12.0001 10.6676L18.1128 6.99995L12.0001 3.33233Z"></path></symbol><symbol viewBox="0 0 24 24" id="close-line"><path d="M11.9997 10.5865L16.9495 5.63672L18.3637 7.05093L13.4139 12.0007L18.3637 16.9504L16.9495 18.3646L11.9997 13.4149L7.04996 18.3646L5.63574 16.9504L10.5855 12.0007L5.63574 7.05093L7.04996 5.63672L11.9997 10.5865Z"></path></symbol></svg>